<svg xmlns="http://www.w3.org/2000/svg" height="430" width="292" style=""><rect id="backgroundrect" width="100%" height="100%" x="0" y="0" fill="none" stroke="none"/><g class="currentLayer" style=""><title>Layer 1</title><path d="m93.03305103710937,11.621896040100097 c-23.320313,9.921875 -43.46875,26.058594 -58.257813,46.640625 l-2.804687,3.78125 c-37.5625,50.582031 -40.882813,118.832031 -8.414063,172.824219 c0.16015600000000005,0.261718 0.3085940000000001,0.527343 0.4414060000000002,0.804687 l105.933594,182.5625 c4.398437,8.71875 15.03125,12.21875 23.75,7.824219 c3.378906,-1.7070319999999999 6.121094,-4.449219 7.824219,-7.824219 l107.128906,-184.550781 c0.14453100000000005,-0.28125 0.2968750000000001,-0.5625 0.460938,-0.855469 c36.570312,-60.410156 27.644531,-137.910156 -21.703126,-188.421875 c-0.535156,-0.5468750000000002 -1.0742180000000001,-1.101562 -1.6210930000000001,-1.648438 c-40,-40.1875 -100.199219,-52.460937 -152.738281,-31.136718 zm0,0 " fill="#dc4d41" id="svg_1" class=""/><path d="m248.78305103710937,146.3679900401001 c0,56.554687 -45.84375,102.402343 -102.398438,102.402343 s-102.398438,-45.847656 -102.398438,-102.402343 c0,-56.550782 45.84375,-102.398438 102.398438,-102.398438 s102.398438,45.847656 102.398438,102.398438 zm0,0 " fill="#ffb1b5" id="svg_2" class=""/><path d="m178.32601903710935,170.7820520401001 l-31.941406,18.253906 l-31.941406,-18.253906 c-16.527344,-9.441406 -24.976563,-28.546875 -20.847656,-47.128906 c3.066406,-13.800782 16.738281,-22.503906 30.542968,-19.441406 c4.753906,1.054687 9.109375,3.445312 12.550782,6.890624 l9.695312,9.667969 l9.695312,-9.695312 c9.996094,-9.996094 26.203126,-9.996094 36.203126,0 c3.441406,3.445312 5.832031,7.800781 6.890624,12.554687 c4.140626,18.589844 -4.3125,37.707032 -20.847656,47.152344 zm0,0 " fill="#ea6b65" id="svg_3" class=""/></g></svg>